<svg width="107" height="41" viewBox="0 0 107 41" fill="none" xmlns="http://www.w3.org/2000/svg">
	<g clip-path="url(#clip0)">
	<path d="M24.4293 20.384C20.1182 20.384 17.0143 23.3443 17.0071 27.447C16.9999 31.5497 20.1182 34.5386 24.4724 34.553C25.5635 34.597 26.6495 34.3816 27.6412 33.9245C28.633 33.4673 29.5021 32.7815 30.1773 31.9233L28.1655 30.0049C27.7263 30.553 27.163 30.9888 26.5221 31.2762C25.8811 31.5635 25.181 31.6942 24.4796 31.6574C23.5635 31.7276 22.6532 31.4624 21.9182 30.9112C21.1832 30.36 20.6737 29.5603 20.4847 28.6612H31.1904L31.2335 28.4744C31.292 28.1375 31.3208 27.7961 31.3198 27.4542C31.3557 23.3084 28.5248 20.3912 24.4293 20.384ZM24.4293 23.2221C25.297 23.2029 26.1417 23.5022 26.8037 24.0636C27.4657 24.6249 27.899 25.4094 28.0218 26.2686H20.4919C20.6691 25.3707 21.1657 24.5674 21.8895 24.0073C22.6134 23.4473 23.5156 23.1683 24.4293 23.2221V23.2221Z" fill="white"/>
	<path d="M40.6747 20.499C39.2962 20.4085 37.9356 20.8509 36.8738 21.7348C36.4084 22.2051 36.0469 22.7679 35.813 23.3868C35.579 24.0057 35.4778 24.6668 35.5159 25.3274V34.2441H38.821V25.622C38.774 25.3124 38.8001 24.9961 38.8973 24.6984C38.9946 24.4007 39.1602 24.13 39.3809 23.9079C39.6017 23.6857 39.8714 23.5184 40.1684 23.4193C40.4655 23.3202 40.7816 23.292 41.0915 23.3371C41.4007 23.3316 41.7094 23.363 42.0112 23.4305L42.2914 23.5024V20.7361L42.1261 20.6858C41.6533 20.5565 41.1649 20.4936 40.6747 20.499V20.499Z" fill="white"/>
	<path d="M49.3256 23.4593C49.6642 23.2303 50.0667 23.1146 50.4752 23.1288C50.9953 23.1292 51.5032 23.2865 51.9326 23.58C52.362 23.8735 52.6929 24.2897 52.8822 24.7741L55.3251 23.488C54.9697 22.7664 54.4591 22.1324 53.8298 21.6314C53.2005 21.1304 52.4682 20.7748 51.6854 20.5901C50.9025 20.4054 50.0885 20.3961 49.3017 20.563C48.5148 20.7298 47.7746 21.0687 47.1341 21.5552C46.7212 21.8866 46.3867 22.3051 46.1544 22.7808C45.9221 23.2566 45.7979 23.7777 45.7905 24.3071C45.7905 26.4626 47.0192 27.4614 48.8657 28.2733L50.4177 28.9918C51.7901 29.5881 52.0631 30.0264 52.0631 30.5294C52.0719 30.7187 52.0354 30.9075 51.9567 31.0799C51.8779 31.2523 51.7593 31.4035 51.6104 31.5209C51.2474 31.7688 50.8138 31.8923 50.3746 31.873C49.779 31.886 49.1976 31.6907 48.7306 31.3208C48.2636 30.9509 47.9404 30.4296 47.8167 29.8468L45.1798 31.097C45.6324 32.7927 47.2132 34.6033 50.2884 34.6105C51.5972 34.6637 52.885 34.2683 53.9384 33.4896C54.3752 33.1384 54.7268 32.6929 54.967 32.1864C55.2071 31.68 55.3296 31.1258 55.3251 30.5653C55.3251 28.3379 53.7875 27.332 52.2787 26.6423L50.5614 25.8663C49.3112 25.3202 48.9088 24.9466 48.916 24.3215C48.9094 24.1553 48.9433 23.9901 49.0146 23.8399C49.0859 23.6897 49.1926 23.5591 49.3256 23.4593V23.4593Z" fill="white"/>
	<path d="M65.9375 20.4775C61.6264 20.4775 58.4937 23.4378 58.4866 27.5477C58.4763 28.4839 58.6563 29.4125 59.0157 30.2771C59.3751 31.1416 59.9064 31.9242 60.5774 32.5772C62.0263 33.9164 63.9361 34.6447 65.9088 34.6106V34.6106C70.1479 34.6106 73.3525 31.5785 73.3669 27.5405C73.3812 23.5025 70.2629 20.4847 65.9375 20.4775ZM68.8762 30.5366C68.2907 31.1204 67.5443 31.516 66.7326 31.673C65.9209 31.83 65.0808 31.7411 64.3199 31.4177C63.559 31.0944 62.9119 30.5513 62.4615 29.858C62.0111 29.1647 61.7779 28.3527 61.7917 27.5261C61.7634 26.4012 62.1819 25.311 62.9557 24.494C63.3409 24.1097 63.7997 23.8073 64.3047 23.6048C64.8097 23.4023 65.3504 23.3039 65.8944 23.3156V23.3156C66.4486 23.2997 67 23.3993 67.5136 23.608C68.0272 23.8168 68.4917 24.1302 68.8776 24.5282C69.2635 24.9263 69.5623 25.4003 69.755 25.9202C69.9478 26.44 70.0302 26.9942 69.9971 27.5477C70.029 28.663 69.6272 29.7473 68.8762 30.5726V30.5366Z" fill="white"/>
	<path d="M83.1673 20.5206C79.7113 20.5206 77.2755 22.6761 77.2684 25.7873V34.2728H80.5735V25.8375C80.5652 25.5061 80.6247 25.1765 80.7482 24.8689C80.8718 24.5613 81.0568 24.2821 81.292 24.0485C81.8053 23.5783 82.4785 23.3214 83.1745 23.33C83.8629 23.3161 84.529 23.5743 85.0282 24.0485C85.2637 24.2834 85.4488 24.5639 85.5723 24.8727C85.6958 25.1815 85.7552 25.5122 85.7468 25.8447V34.28H89.0519V25.895C89.0727 25.1625 88.9351 24.4341 88.6487 23.7595C88.3623 23.0849 87.9337 22.4801 87.3921 21.9863C86.2111 20.9965 84.7076 20.4749 83.1673 20.5206V20.5206Z" fill="white"/>
	<path d="M106.777 27.4542C106.766 25.7055 106.097 24.0252 104.902 22.748C103.721 21.5468 102.136 20.8251 100.455 20.7218C100.318 20.7218 100.182 20.7218 100.016 20.7218H99.8726C98.9648 20.7008 98.062 20.8624 97.2178 21.1969C96.3736 21.5313 95.6052 22.0319 94.958 22.6689C93.6806 23.9972 92.9806 25.7769 93.0109 27.6195C92.9497 29.4801 93.6293 31.289 94.9005 32.649C95.5489 33.2869 96.3184 33.7884 97.1637 34.1241C98.009 34.4597 98.913 34.6227 99.8223 34.6034H106.77V27.4542H106.777ZM103.501 27.6123V31.4635H99.9086C99.3345 31.4661 98.7686 31.3272 98.2611 31.059C97.7535 30.7908 97.3199 30.4016 96.9986 29.9259C96.5536 29.232 96.3236 28.4221 96.3376 27.5979C96.3223 26.7725 96.5551 25.9616 97.0058 25.2699C97.3304 24.7957 97.7673 24.4091 98.2775 24.1446C98.7877 23.8801 99.3555 23.7458 99.9301 23.7539C100.423 23.7555 100.911 23.8586 101.362 24.0569C101.814 24.2551 102.22 24.5442 102.555 24.9062C102.89 25.2681 103.147 25.6952 103.31 26.1608C103.472 26.6263 103.538 27.1204 103.501 27.6123Z" fill="white"/>
	<path d="M6.9839 20.4775H6.84738H6.41628C4.73107 20.5721 3.14102 21.289 1.95434 22.4893C0.738754 23.7674 0.0553887 25.4604 0.0431105 27.2243V31.212H0V40.84H3.29077V34.3088H6.96953C10.986 34.3088 13.7954 31.4778 13.8097 27.3967C13.8465 26.4862 13.6958 25.5778 13.367 24.7279C13.0381 23.878 12.5383 23.1047 11.8983 22.4559C11.2583 21.8072 10.4918 21.2968 9.64648 20.9565C8.80112 20.6162 7.89487 20.4531 6.9839 20.4775V20.4775ZM10.4974 27.3967C10.5073 28.2202 10.2723 29.028 9.82201 29.7175C9.49774 30.1926 9.06112 30.5803 8.55095 30.846C8.04078 31.1117 7.47287 31.2473 6.89768 31.2407H3.30514V27.3752C3.27161 26.8832 3.3397 26.3897 3.50516 25.9252C3.67063 25.4607 3.92994 25.0353 4.26694 24.6754C4.60394 24.3155 5.01142 24.0288 5.46401 23.8332C5.9166 23.6375 6.40462 23.5372 6.89768 23.5383C7.47253 23.5324 8.03988 23.6691 8.54896 23.9362C9.05804 24.2033 9.49296 24.5924 9.81482 25.0687C10.271 25.7586 10.5089 26.5698 10.4974 27.3967V27.3967Z" fill="white"/>
	<path d="M16.8418 2.73028C16.8541 3.07292 16.7967 3.41449 16.6732 3.73435C16.5497 4.0542 16.3627 4.34569 16.1233 4.59121C15.8494 4.85756 15.5239 5.06507 15.1668 5.20099C14.8097 5.3369 14.4286 5.39836 14.0468 5.38157H12.3871V8.62204H10.7273V0.0717961H14.0253C14.4068 0.0566914 14.7875 0.118924 15.1443 0.25475C15.5012 0.390576 15.8268 0.597188 16.1018 0.862155C16.3452 1.10721 16.5363 1.39915 16.6635 1.72027C16.7907 2.04139 16.8514 2.38501 16.8418 2.73028V2.73028ZM15.1749 2.73028C15.1823 2.57261 15.1567 2.41514 15.0998 2.26792C15.0429 2.1207 14.9559 1.98696 14.8444 1.87525C14.723 1.76578 14.5811 1.68148 14.427 1.62721C14.2728 1.57295 14.1094 1.5498 13.9462 1.55911H12.3871V3.88707H13.9462C14.2724 3.90866 14.5943 3.80308 14.8444 3.59249C14.9591 3.48163 15.0481 3.34699 15.1052 3.19803C15.1623 3.04907 15.1861 2.88941 15.1749 2.73028Z" fill="white"/>
	<path d="M25.6795 4.31106C25.6979 4.95482 25.6618 5.59898 25.5717 6.23666C25.4839 6.77759 25.2333 7.27888 24.8532 7.67368C24.2364 8.27282 23.4103 8.60796 22.5504 8.60796C21.6905 8.60796 20.8644 8.27282 20.2476 7.67368C19.8701 7.27706 19.6199 6.77661 19.529 6.23666C19.436 5.59912 19.3928 4.95531 19.3997 4.31106C19.3833 3.66755 19.4169 3.02375 19.5003 2.38546C19.5881 1.84453 19.8388 1.34323 20.2188 0.948441C20.8357 0.349303 21.6617 0.0141602 22.5216 0.0141602C23.3816 0.0141602 24.2076 0.349303 24.8245 0.948441C25.2123 1.35207 25.4636 1.86728 25.543 2.42138C25.6407 3.04641 25.6863 3.67847 25.6795 4.31106V4.31106ZM24.0197 4.31106C24.0197 3.65722 24.0197 3.24048 24.0197 3.06804C24.0146 2.65354 23.8789 2.25123 23.6317 1.91843C23.4928 1.77234 23.3256 1.65602 23.1403 1.57654C22.9551 1.49705 22.7556 1.45607 22.554 1.45607C22.3524 1.45607 22.1529 1.49705 21.9676 1.57654C21.7823 1.65602 21.6151 1.77234 21.4762 1.91843C21.2379 2.25528 21.1053 2.65551 21.0954 3.06804C21.0954 3.21174 21.0954 3.62129 21.0954 4.31106C21.0954 5.00083 21.0954 5.41038 21.0954 5.55408C21.1099 5.9658 21.242 6.36475 21.4762 6.70369C21.6121 6.85305 21.7789 6.97095 21.9651 7.04913C22.1512 7.12732 22.3522 7.16391 22.554 7.15635C22.7773 7.16591 22.9997 7.12047 23.2014 7.024C23.4031 6.92753 23.578 6.783 23.7108 6.6031C24.0013 5.87629 24.1075 5.08886 24.0197 4.31106V4.31106Z" fill="white"/>
	<path d="M38.3611 0.0718994L36.0763 8.62215H34.6896L33.1232 3.42015L31.5569 8.62215H30.1773L27.8925 0.0718994H29.6313L30.9461 5.44634L32.4981 0.0718994H33.7699L35.3219 5.44634L36.6439 0.0718994H38.3611Z" fill="white"/>
	<path d="M46.4731 8.62215H40.8616V0.0718994H46.4731V1.55921H42.5285V3.59259H45.8839V5.02961H42.5285V7.10609H46.4731V8.62215Z" fill="white"/>
	<path d="M55.9861 8.62208H54.0605L52.3936 5.1948H51.2009V8.62208H49.534V0.0718343H52.875C53.2484 0.0547608 53.6214 0.114145 53.9711 0.246346C54.3207 0.378547 54.6397 0.580778 54.9084 0.840638C55.1481 1.08138 55.3357 1.36898 55.4593 1.68546C55.5829 2.00193 55.64 2.3405 55.6269 2.68002C55.6374 3.19679 55.4756 3.70236 55.167 4.11704C54.886 4.47621 54.5066 4.74583 54.0749 4.89302L55.9861 8.62208ZM53.9743 2.70157C53.9796 2.551 53.9521 2.40108 53.8938 2.26215C53.8355 2.12322 53.7478 1.99858 53.6366 1.89684C53.3988 1.68348 53.0864 1.57247 52.7672 1.58789H51.2009V3.79371H52.7672C53.0858 3.80534 53.3968 3.69482 53.6366 3.48475C53.7479 3.38162 53.8357 3.25571 53.894 3.11561C53.9523 2.9755 53.9797 2.82448 53.9743 2.67283V2.70157Z" fill="white"/>
	<path d="M64.4071 8.62215H58.7955V0.0718994H64.4071V1.55921H60.4553V3.59259H63.8179V5.02961H60.4553V7.10609H64.4071V8.62215Z" fill="white"/>
	<path d="M73.6543 4.31101C73.6708 4.93461 73.6468 5.55863 73.5824 6.17913C73.5018 6.78754 73.2242 7.35283 72.7921 7.78858C72.4938 8.07349 72.1405 8.2944 71.7537 8.43773C71.367 8.58106 70.955 8.64379 70.5431 8.62205H67.4679V0.0718081H70.5431C70.9534 0.0484805 71.3641 0.108384 71.7506 0.247914C72.1371 0.387445 72.4913 0.603718 72.7921 0.883722C73.2195 1.31128 73.4969 1.86592 73.5824 2.46444C73.6476 3.07767 73.6716 3.69457 73.6543 4.31101ZM71.9945 4.31101C72.0044 3.8311 71.9828 3.35107 71.9298 2.87399C71.9104 2.58754 71.808 2.31294 71.6353 2.08363C71.4849 1.90916 71.2967 1.77124 71.0851 1.68036C70.8734 1.58948 70.6439 1.54801 70.4138 1.55912H69.1348V7.106H70.4138C70.6486 7.1216 70.8838 7.08232 71.1008 6.99129C71.3178 6.90025 71.5106 6.75995 71.664 6.58149C71.83 6.33456 71.9222 6.04546 71.9298 5.74802C71.981 5.2708 72.0025 4.79089 71.9945 4.31101V4.31101Z" fill="white"/>
	<path d="M87.1766 6.136C87.1947 6.47179 87.1399 6.80752 87.0158 7.12009C86.8918 7.43265 86.7015 7.71464 86.4581 7.94664C85.9325 8.39311 85.2574 8.62413 84.5684 8.5933H80.9759V0.0717911H84.4031C85.1045 0.0301667 85.7947 0.261947 86.3287 0.718448C86.5671 0.940597 86.7547 1.2116 86.8788 1.51294C87.0028 1.81427 87.0602 2.13883 87.0473 2.46442C87.0521 2.8782 86.9264 3.28296 86.688 3.62122C86.5026 3.87919 86.2556 4.08668 85.9695 4.22477C86.3445 4.37814 86.6624 4.64469 86.8788 4.98728C87.0952 5.32988 87.1993 5.73143 87.1766 6.136V6.136ZM85.3947 2.54346C85.4005 2.40952 85.3771 2.27591 85.3263 2.15187C85.2754 2.02782 85.1982 1.91628 85.1001 1.82495C84.8748 1.63332 84.5832 1.53784 84.2882 1.5591H82.6644V3.52063H84.2882C84.5842 3.53991 84.8759 3.44182 85.1001 3.2476C85.1973 3.15706 85.2739 3.0467 85.3247 2.92397C85.3756 2.80124 85.3994 2.66902 85.3947 2.53627V2.54346ZM85.5096 6.06415C85.5111 5.79634 85.408 5.53853 85.2222 5.34564C85.1115 5.24373 84.9811 5.16564 84.8389 5.1162C84.6968 5.06677 84.546 5.04704 84.396 5.05824H82.6644V7.10599H84.396C84.5472 7.11662 84.6989 7.09524 84.8413 7.04324C84.9837 6.99124 85.1135 6.90979 85.2222 6.80421C85.3171 6.70512 85.3909 6.58779 85.439 6.45934C85.4872 6.33089 85.5088 6.194 85.5025 6.05696L85.5096 6.06415Z" fill="white"/>
	<path d="M96.122 0.0718823L93.5641 5.10144V8.62213H91.9116V5.09425L89.3465 0.0646973H91.1571L92.745 3.49917L94.3186 0.0718823H96.122Z" fill="white"/>
	</g>
	<defs>
	<clipPath id="clip0">
	<rect width="106.777" height="40.84" fill="white"/>
	</clipPath>
	</defs>
</svg>
