<svg width="70" viewBox="0 0 112 24" xmlns="http://www.w3.org/2000/svg" xmlns:xlink="http://www.w3.org/1999/xlink">
  <use fill-rule="nonzero" xlink:href="#a"/>
  <path fill="#FFFFFF" d="M38.386 6.61H34.94v4.944h3.354c1.516 0 2.229-1.282 2.229-2.45 0-1.144-.667-2.495-2.137-2.495zM32 19.77V4h6.432c3.515 0 5.03 2.54 5.03 5.104s-1.515 5.06-5.03 5.06H34.94v5.607H32zm23.172-5.379c0 .275-.023.71-.046.961h-8.178c.184 1.42 1.378 2.29 2.963 2.29 1.08 0 2.182-.459 2.688-1.374.666.366 1.447.778 2.136 1.144C53.77 19.245 51.703 20 49.727 20c-3.055 0-5.559-2.243-5.559-5.608 0-3.365 2.504-5.54 5.56-5.54 3.054 0 5.444 2.175 5.444 5.54zm-8.247-.938h5.513c-.207-1.465-1.31-2.267-2.688-2.267-1.47 0-2.618.824-2.825 2.267zm12.95 2.54v3.777h-2.803V9.081h2.803V11.6c.551-1.945 1.814-2.746 3.032-2.746.758 0 1.332.16 1.769.389l-.483 2.518c-.666-.298-1.355-.298-1.63-.298-1.907 0-2.688 1.694-2.688 4.532zm8.688-.686c-2.78-.756-3.032-2.015-3.032-3.274 0-1.716 1.815-3.181 3.951-3.181 2.022 0 4.089.915 4.18 3.364h-2.664c-.046-.8-.827-1.098-1.447-1.098-.69 0-1.355.252-1.355 1.053 0 .435.505.732 1.125.892l1.792.435c2.48.641 2.802 2.358 2.802 3.205 0 2.174-2.159 3.296-4.387 3.296-2.113 0-4.273-1.282-4.319-3.594h2.619c.069.756.942 1.397 1.976 1.35.78-.022 1.4-.457 1.4-1.075.024-.55-.39-.824-1.17-1.007l-1.47-.366zm12.292 1.945c1.54 0 2.803-1.121 2.803-2.861 0-1.694-1.264-2.793-2.803-2.793s-2.802 1.1-2.802 2.793c0 1.74 1.263 2.861 2.802 2.861zm0 2.724c-3.055 0-5.582-2.22-5.582-5.585 0-3.365 2.527-5.54 5.582-5.54 3.033 0 5.582 2.175 5.582 5.54s-2.55 5.585-5.582 5.585zm10.439-5.905v5.7H88.49V9.081h2.803v1.579c.597-1.145 1.952-1.808 3.193-1.808 2.504 0 3.997 1.579 3.997 4.6v6.318H95.68v-5.814c0-1.556-.827-2.38-2.044-2.38-1.264 0-2.343.64-2.343 2.495zm17.903 5.7v-1.374c-.689 1.098-2.274 1.58-3.33 1.58-2.826 0-5.468-2.152-5.468-5.563 0-3.434 2.642-5.562 5.468-5.562.964 0 2.549.366 3.33 1.556V9.082H112v10.69h-2.803zm-5.903-5.357c0 1.717 1.424 2.884 2.963 2.884 1.516 0 2.94-1.053 2.94-2.884 0-1.854-1.47-2.884-2.94-2.884-1.539 0-2.963 1.144-2.963 2.884zM24 0v17.778l-.267.355a14.665 14.665 0 0 1-23.466 0L0 17.778V0h24zM2.667 16.876a12 12 0 0 0 2.915 2.597 6.613 6.613 0 0 1 3.205-4.02l4.506-2.486a2.667 2.667 0 0 0 1.047-3.6 2.667 2.667 0 0 0-4.667 0 2.667 2.667 0 0 0 .994 3.566L8.14 14.32a5.333 5.333 0 0 1-.807-6.247A5.333 5.333 0 0 1 12 5.333a5.333 5.333 0 0 1 4.667 2.74 5.334 5.334 0 0 1-2.094 7.26l-4.5 2.454a3.96 3.96 0 0 0-2.022 2.878 12 12 0 0 0 7.914-.006 3.958 3.958 0 0 0-2.025-2.899l-.513-.287L16.093 16a6.614 6.614 0 0 1 2.339 3.464c1.1-.698 2.08-1.572 2.901-2.588V2.666H2.667v14.21z" id="a"/>
</svg>