<?xml version="1.0" encoding="utf-8"?>
<!-- Generator: Adobe Illustrator 23.0.4, SVG Export Plug-In . SVG Version: 6.00 Build 0)  -->
<svg version="1.1" id="Layer_1" xmlns="http://www.w3.org/2000/svg" xmlns:xlink="http://www.w3.org/1999/xlink" x="0px" y="0px"
	 viewBox="0 0 373.3 59.4" style="enable-background:new 0 0 373.3 59.4;" xml:space="preserve">
<style type="text/css">
	<!-- .st0{fill:#FFFFFF;}
	.st1{fill-rule:evenodd;clip-rule:evenodd;fill:#FFFFFF;} -->
</style>
<g>
	<g>
		<path class="st0" d="M14.8,40.7c-0.1-0.1-0.2-0.3-0.2-0.5V19c0-0.2,0.1-0.4,0.2-0.5c0.1-0.1,0.3-0.2,0.5-0.2h7.9
			c2.3,0,4.1,0.6,5.4,1.7c1.3,1.2,2,2.8,2,5c0,2.2-0.7,3.8-2,5c-1.3,1.2-3.1,1.7-5.4,1.7h-6.5v8.5c0,0.2-0.1,0.4-0.2,0.5
			c-0.1,0.1-0.3,0.2-0.5,0.2h-0.6C15.1,40.9,15,40.8,14.8,40.7z M23,29.7c1.9,0,3.2-0.4,4.2-1.2c0.9-0.8,1.4-2,1.4-3.5
			s-0.5-2.7-1.4-3.5c-0.9-0.8-2.3-1.2-4.2-1.2h-6.4v9.5H23z"/>
		<path class="st0" d="M35.5,39.2c-1.2-1.4-1.9-3.1-2-5.3l0-1.4l0-1.4c0.1-2.2,0.7-3.9,2-5.3c1.2-1.4,3-2.1,5.2-2.1
			c2.2,0,4,0.7,5.2,2.1s1.9,3.1,2,5.3c0,0.2,0,0.7,0,1.4c0,0.7,0,1.1,0,1.4c-0.1,2.2-0.7,3.9-2,5.3c-1.2,1.4-3,2.1-5.2,2.1
			C38.4,41.2,36.7,40.5,35.5,39.2z M44.4,37.9c0.9-1,1.4-2.4,1.5-4.2c0-0.2,0-0.6,0-1.2c0-0.6,0-1,0-1.2c-0.1-1.8-0.6-3.2-1.5-4.2
			c-0.9-1-2.2-1.5-3.7-1.5c-1.5,0-2.8,0.5-3.7,1.5c-0.9,1-1.4,2.4-1.5,4.2l0,1.2l0,1.2c0.1,1.8,0.6,3.2,1.5,4.2
			c0.9,1,2.2,1.5,3.7,1.5C42.2,39.3,43.4,38.8,44.4,37.9z"/>
		<path class="st0" d="M55.6,40.7c-0.2-0.1-0.3-0.3-0.4-0.6l-4.6-15l-0.1-0.4c0-0.2,0.1-0.3,0.2-0.5c0.1-0.1,0.3-0.2,0.5-0.2h0.6
			c0.2,0,0.4,0.1,0.5,0.2c0.1,0.1,0.2,0.2,0.2,0.3l4,13.4l4.2-13.3c0-0.2,0.1-0.3,0.3-0.5s0.3-0.2,0.6-0.2h0.6
			c0.2,0,0.4,0.1,0.6,0.2c0.2,0.1,0.2,0.3,0.3,0.5L67.4,38l4-13.4c0-0.1,0.1-0.2,0.2-0.3c0.1-0.1,0.3-0.2,0.5-0.2h0.6
			c0.2,0,0.3,0.1,0.5,0.2c0.1,0.1,0.2,0.3,0.2,0.5l-0.1,0.4l-4.6,15c-0.1,0.3-0.2,0.5-0.4,0.6c-0.2,0.1-0.4,0.2-0.6,0.2h-0.5
			c-0.6,0-0.9-0.3-1.1-0.8L62,27.3l-4.1,12.7c-0.2,0.5-0.5,0.8-1.1,0.8h-0.5C56,40.9,55.8,40.8,55.6,40.7z"/>
		<path class="st0" d="M78.2,39.2c-1.2-1.3-2-3.2-2.1-5.4l0-1.3l0-1.3c0.2-2.2,0.9-4,2.1-5.4c1.2-1.4,2.9-2,5-2c2.2,0,4,0.7,5.3,2.2
			c1.3,1.5,1.9,3.5,1.9,6.1v0.5c0,0.2-0.1,0.4-0.2,0.5c-0.1,0.1-0.3,0.2-0.5,0.2H78v0.3c0,1,0.3,2,0.7,2.8c0.4,0.9,1,1.6,1.8,2.1
			c0.8,0.5,1.6,0.8,2.7,0.8c1.2,0,2.1-0.2,2.9-0.7c0.7-0.5,1.3-0.9,1.6-1.4c0.2-0.3,0.3-0.4,0.4-0.5c0.1-0.1,0.3-0.1,0.5-0.1h0.5
			c0.2,0,0.4,0.1,0.5,0.2c0.1,0.1,0.2,0.2,0.2,0.4c0,0.5-0.3,1-0.9,1.6c-0.6,0.6-1.4,1.2-2.4,1.6s-2.2,0.7-3.4,0.7
			C81.1,41.2,79.4,40.5,78.2,39.2z M88.3,31.5v-0.1c0-1.7-0.5-3-1.4-4.1c-0.9-1.1-2.2-1.6-3.8-1.6c-1.6,0-2.8,0.5-3.7,1.6
			c-0.9,1.1-1.4,2.4-1.4,4.1v0.1H88.3z"/>
		<path class="st0" d="M94.7,40.7c-0.1-0.1-0.2-0.3-0.2-0.5V24.8c0-0.2,0.1-0.4,0.2-0.5c0.1-0.1,0.3-0.2,0.5-0.2h0.5
			c0.2,0,0.4,0.1,0.5,0.2c0.1,0.1,0.2,0.3,0.2,0.5v1.5c0.8-1.5,2.2-2.2,4.4-2.2h1.2c0.2,0,0.4,0.1,0.5,0.2s0.2,0.3,0.2,0.5v0.5
			c0,0.2-0.1,0.4-0.2,0.5c-0.1,0.1-0.3,0.2-0.5,0.2h-1.4c-1.3,0-2.3,0.4-3.1,1.1c-0.8,0.8-1.1,1.8-1.1,3.1v10c0,0.2-0.1,0.4-0.2,0.5
			c-0.1,0.1-0.3,0.2-0.5,0.2h-0.5C95,40.9,94.8,40.8,94.7,40.7z"/>
		<path class="st0" d="M106.7,39.2c-1.2-1.3-2-3.2-2.1-5.4l0-1.3l0-1.3c0.2-2.2,0.9-4,2.1-5.4c1.2-1.4,2.9-2,5-2
			c2.2,0,4,0.7,5.3,2.2c1.3,1.5,1.9,3.5,1.9,6.1v0.5c0,0.2-0.1,0.4-0.2,0.5c-0.1,0.1-0.3,0.2-0.5,0.2h-11.5v0.3c0,1,0.3,2,0.7,2.8
			s1,1.6,1.8,2.1c0.8,0.5,1.6,0.8,2.6,0.8c1.2,0,2.1-0.2,2.9-0.7c0.7-0.5,1.3-0.9,1.6-1.4c0.2-0.3,0.3-0.4,0.4-0.5
			c0.1-0.1,0.3-0.1,0.5-0.1h0.5c0.2,0,0.4,0.1,0.5,0.2c0.1,0.1,0.2,0.2,0.2,0.4c0,0.5-0.3,1-0.9,1.6c-0.6,0.6-1.4,1.2-2.4,1.6
			s-2.2,0.7-3.4,0.7C109.6,41.2,107.9,40.5,106.7,39.2z M116.8,31.5v-0.1c0-1.7-0.5-3-1.4-4.1c-0.9-1.1-2.2-1.6-3.8-1.6
			s-2.8,0.5-3.7,1.6c-0.9,1.1-1.4,2.4-1.4,4.1v0.1H116.8z"/>
		<path class="st0" d="M123.9,38.9c-1.1-1.5-1.7-3.4-1.8-5.5l0-0.9l0-0.9c0.1-2.2,0.7-4,1.8-5.5c1.1-1.5,2.8-2.3,5.2-2.3
			c2.3,0,4.2,0.9,5.4,2.6v-7.7c0-0.2,0.1-0.4,0.2-0.5s0.3-0.2,0.5-0.2h0.5c0.2,0,0.4,0.1,0.5,0.2c0.1,0.1,0.2,0.3,0.2,0.5v21.5
			c0,0.2-0.1,0.4-0.2,0.5c-0.1,0.1-0.3,0.2-0.5,0.2h-0.5c-0.2,0-0.4-0.1-0.5-0.2s-0.2-0.3-0.2-0.5v-1.5c-1.2,1.7-3.1,2.6-5.4,2.6
			C126.8,41.2,125.1,40.4,123.9,38.9z M133.1,37.6c0.9-1.1,1.3-2.5,1.4-4c0-0.2,0-0.6,0-1.3c0-0.6,0-1,0-1.3c0-0.9-0.2-1.8-0.6-2.6
			c-0.4-0.8-1-1.5-1.7-2.1c-0.8-0.5-1.7-0.8-2.9-0.8c-1.7,0-3,0.6-3.8,1.7c-0.8,1.1-1.2,2.5-1.3,4.3l0,0.9c0,2,0.4,3.6,1.2,4.9
			c0.8,1.3,2.1,1.9,4,1.9C131,39.3,132.3,38.8,133.1,37.6z"/>
		<path class="st0" d="M152.1,38.6v1.5c0,0.2-0.1,0.4-0.2,0.5c-0.1,0.1-0.3,0.2-0.5,0.2h-0.5c-0.2,0-0.4-0.1-0.5-0.2
			s-0.2-0.3-0.2-0.5V18.6c0-0.2,0.1-0.4,0.2-0.5s0.3-0.2,0.5-0.2h0.5c0.2,0,0.4,0.1,0.5,0.2c0.1,0.1,0.2,0.3,0.2,0.5v7.7
			c1.3-1.7,3.1-2.6,5.4-2.6c2.3,0,4,0.8,5.2,2.3c1.1,1.5,1.7,3.4,1.8,5.5c0,0.2,0,0.5,0,0.9s0,0.7,0,0.9c-0.1,2.2-0.7,4-1.8,5.5
			c-1.1,1.5-2.8,2.3-5.2,2.3C155.2,41.2,153.4,40.4,152.1,38.6z M161.2,37.7c0.8-1.1,1.2-2.5,1.3-4.3c0-0.2,0-0.5,0-0.9
			c0-2-0.4-3.6-1.2-4.9c-0.8-1.3-2.1-1.9-4-1.9c-1.1,0-2.1,0.3-2.9,0.8c-0.8,0.5-1.4,1.2-1.7,2.1c-0.4,0.8-0.6,1.7-0.6,2.6l0,1.3
			l0,1.3c0.1,1.5,0.5,2.9,1.4,4c0.9,1.1,2.1,1.7,3.8,1.7C159.1,39.3,160.4,38.8,161.2,37.7z"/>
		<path class="st0" d="M170.6,46.8c-0.1-0.1-0.2-0.3-0.2-0.5c0-0.1,0.1-0.3,0.2-0.6l2.5-5.8l-6.2-14.5c-0.1-0.3-0.2-0.5-0.2-0.6
			c0-0.2,0.1-0.3,0.2-0.5c0.1-0.1,0.3-0.2,0.5-0.2h0.7c0.3,0,0.6,0.2,0.7,0.5l5.4,12.8l5.6-12.8c0.2-0.3,0.4-0.5,0.7-0.5h0.6
			c0.2,0,0.3,0.1,0.5,0.2c0.1,0.1,0.2,0.3,0.2,0.5c0,0.1-0.1,0.3-0.2,0.6l-9.2,21.2c-0.2,0.3-0.4,0.5-0.7,0.5h-0.6
			C170.9,47,170.8,47,170.6,46.8z"/>
	</g>
	<g>
		<path class="st0" d="M251.1,21.8c2.1,0,3.1,2,3.1,3.6c0,1.7-1,3.6-3.3,3.6h-4.9v-7.2H251.1z M241.8,41h4.3v-8.2h5.1
			c5.1,0,7.3-3.6,7.3-7.4c0-3.7-2.2-7.5-7.3-7.5h-9.4V41z"/>
		<path class="st0" d="M275.7,33.2c0-4.9-3.5-8.1-8-8.1c-4.5,0-8.1,3.2-8.1,8.1s3.7,8.2,8.1,8.2c2.9,0,5.9-1.1,7.3-3.8
			c-1-0.5-2.1-1.1-3.1-1.7c-0.7,1.3-2.3,2-3.9,2c-2.3,0-4.1-1.3-4.3-3.3h11.9C275.6,34.2,275.7,33.6,275.7,33.2z M263.6,31.8
			c0.3-2.1,2-3.3,4.1-3.3c2,0,3.6,1.2,3.9,3.3H263.6z"/>
		<path class="st0" d="M282.5,35.5c0-4.1,1.1-6.6,3.9-6.6c0.4,0,1.4,0,2.4,0.4l0.7-3.7c-0.6-0.3-1.5-0.6-2.6-0.6
			c-1.8,0-3.6,1.2-4.4,4v-3.7h-4.1V41h4.1V35.5z"/>
		<path class="st0" d="M295.2,34.5l2.1,0.5c1.1,0.3,1.7,0.7,1.7,1.5c0,0.9-0.9,1.5-2,1.6c-1.5,0.1-2.8-0.9-2.9-2h-3.8
			c0.1,3.4,3.2,5.3,6.3,5.3c3.3,0,6.4-1.6,6.4-4.8c0-1.2-0.5-3.7-4.1-4.7l-2.6-0.6c-0.9-0.2-1.6-0.7-1.6-1.3c0-1.2,1-1.5,2-1.5
			c0.9,0,2,0.4,2.1,1.6h3.9c-0.1-3.6-3.2-4.9-6.1-4.9c-3.1,0-5.8,2.1-5.8,4.6C290.8,31.6,291.2,33.4,295.2,34.5z"/>
		<path class="st0" d="M313.2,37.4c-2.2,0-4.1-1.6-4.1-4.2c0-2.5,1.8-4.1,4.1-4.1s4.1,1.6,4.1,4.1C317.3,35.7,315.4,37.4,313.2,37.4
			z M313.2,41.3c4.4,0,8.2-3.2,8.2-8.2s-3.7-8.1-8.2-8.1c-4.5,0-8.2,3.2-8.2,8.1S308.7,41.3,313.2,41.3z"/>
		<path class="st0" d="M328.4,32.7c0-2.7,1.6-3.6,3.4-3.6c1.8,0,3,1.2,3,3.5V41c0.6,0,3.4,0,4.1,0v-9.2c0-4.4-2.2-6.7-5.8-6.7
			c-1.8,0-3.8,1-4.7,2.6v-2.3h-4.1V41h4.1V32.7z"/>
		<path class="st0" d="M354.6,41h4.1V25.4h-4.1v1.9c-1.1-1.7-3.5-2.3-4.9-2.3c-4.1,0-8,3.1-8,8.1c0,5,3.9,8.1,8,8.1
			c1.5,0,3.9-0.7,4.9-2.3V41z M346,33.2c0-2.5,2.1-4.2,4.3-4.2c2.1,0,4.3,1.5,4.3,4.2c0,2.7-2.1,4.2-4.3,4.2
			C348.1,37.4,346,35.7,346,33.2z"/>
		<path class="st1" d="M230.1,12.2h-35.1v26l0.4,0.5c2,2.7,4.6,4.8,7.6,6.3c3,1.5,6.3,2.3,9.6,2.3c3.3,0,6.6-0.8,9.6-2.3
			c3-1.5,5.6-3.6,7.6-6.3l0.4-0.5V12.2z M199,36.8V16.1h27.3v20.8c-1.2,1.5-2.6,2.8-4.2,3.8c0-0.2-0.1-0.3-0.1-0.5
			c-0.6-1.8-1.7-3.4-3.3-4.6l-3.9,2.2l0.7,0.4c1.1,0.6,2,1.6,2.6,2.8c0.2,0.5,0.3,0.9,0.4,1.4c-1.9,0.7-3.8,1-5.8,1
			c-2,0-3.9-0.3-5.8-1c0.1-0.5,0.2-0.9,0.4-1.4c0.5-1.2,1.4-2.2,2.6-2.8l6.6-3.6c0.9-0.5,1.7-1.2,2.3-2c0.6-0.8,1.1-1.7,1.4-2.7
			c0.3-1,0.4-2,0.3-3c-0.1-1-0.4-2-0.9-2.9c-0.7-1.2-1.7-2.2-2.9-2.9c-1.2-0.7-2.6-1.1-4-1.1c-1.4,0-2.8,0.4-4,1.1
			c-1.2,0.7-2.2,1.7-2.9,2.9c-0.8,1.4-1.1,3.1-0.9,4.8c0.2,1.6,0.9,3.2,2.1,4.4l3.7-2c-0.9-0.5-1.5-1.3-1.8-2.3
			c-0.3-1-0.2-2,0.3-2.9c0.3-0.6,0.8-1.1,1.4-1.5c0.6-0.4,1.3-0.5,2-0.5c0.7,0,1.4,0.2,2,0.5c0.6,0.4,1.1,0.9,1.4,1.5
			c0.5,0.9,0.6,2,0.3,2.9c-0.3,1-0.9,1.8-1.8,2.3l-6.6,3.6c-1.9,1-3.4,2.7-4.3,4.7c-0.2,0.4-0.3,0.8-0.4,1.2
			C201.6,39.6,200.2,38.3,199,36.8z"/>
	</g>
</g>
</svg>
