<svg width="149" height="57" viewBox="0 0 149 57" fill="none" xmlns="http://www.w3.org/2000/svg">
	<g clip-path="url(#clip0)">
	<path d="M34 28.3701C28 28.3701 23.68 32.4901 23.67 38.2001C23.66 43.9101 28 48.0701 34.06 48.0901C35.5786 48.1514 37.0901 47.8516 38.4703 47.2153C39.8506 46.5791 41.0602 45.6246 42 44.4301L39.2 41.7601C38.5888 42.523 37.8047 43.1295 36.9127 43.5295C36.0207 43.9294 35.0462 44.1113 34.07 44.0601C32.7951 44.1579 31.5281 43.7887 30.5052 43.0215C29.4823 42.2543 28.7732 41.1414 28.51 39.8901H43.41L43.47 39.6301C43.5513 39.1612 43.5915 38.686 43.59 38.2101C43.64 32.4401 39.7 28.3801 34 28.3701ZM34 32.3201C35.2077 32.2933 36.3834 32.7099 37.3047 33.4912C38.226 34.2725 38.8291 35.3643 39 36.5601H28.52C28.7668 35.3104 29.4578 34.1924 30.4652 33.4129C31.4727 32.6334 32.7284 32.2452 34 32.3201V32.3201Z" fill="#1C0000"/>
	<path d="M56.61 28.53C54.6914 28.4041 52.7977 29.0198 51.32 30.25C50.6722 30.9045 50.1691 31.6878 49.8435 32.5491C49.5179 33.4105 49.377 34.3307 49.43 35.25V47.66H54.03V35.66C53.9645 35.2291 54.0009 34.7889 54.1363 34.3746C54.2716 33.9603 54.5021 33.5835 54.8093 33.2744C55.1165 32.9652 55.4919 32.7324 55.9053 32.5944C56.3187 32.4565 56.7587 32.4173 57.19 32.48C57.6203 32.4724 58.05 32.516 58.47 32.61L58.86 32.71V28.86L58.63 28.79C57.972 28.61 57.2921 28.5225 56.61 28.53V28.53Z" fill="#1C0000"/>
	<path d="M68.65 32.65C69.1213 32.3313 69.6814 32.1702 70.25 32.19C70.9739 32.1906 71.6808 32.4095 72.2784 32.818C72.876 33.2265 73.3366 33.8057 73.6 34.48L77 32.69C76.5053 31.6857 75.7946 30.8033 74.9188 30.106C74.0431 29.4087 73.0239 28.9138 71.9343 28.6567C70.8448 28.3996 69.7119 28.3867 68.6167 28.619C67.5216 28.8512 66.4914 29.3228 65.6 30C65.0254 30.4611 64.5597 31.0436 64.2365 31.7057C63.9132 32.3678 63.7402 33.0932 63.73 33.83C63.73 36.83 65.44 38.22 68.01 39.35L70.17 40.35C72.08 41.18 72.46 41.79 72.46 42.49C72.4722 42.7535 72.4214 43.0161 72.3119 43.2561C72.2023 43.4961 72.0371 43.7065 71.83 43.87C71.3247 44.2149 70.7212 44.3868 70.11 44.36C69.2811 44.378 68.4718 44.1062 67.8219 43.5914C67.172 43.0765 66.7222 42.351 66.55 41.54L62.88 43.28C63.51 45.64 65.71 48.16 69.99 48.17C71.8116 48.244 73.6039 47.6936 75.07 46.61C75.6779 46.1211 76.1673 45.501 76.5016 44.7962C76.8358 44.0913 77.0062 43.32 77 42.54C77 39.44 74.86 38.04 72.76 37.08L70.37 36C68.63 35.24 68.07 34.72 68.08 33.85C68.0708 33.6187 68.1179 33.3888 68.2172 33.1797C68.3165 32.9707 68.465 32.7889 68.65 32.65V32.65Z" fill="#1C0000"/>
	<path d="M91.77 28.5C85.77 28.5 81.41 32.62 81.4 38.34C81.3856 39.643 81.6362 40.9354 82.1364 42.1387C82.6366 43.342 83.3761 44.4311 84.31 45.34C86.3265 47.2038 88.9845 48.2175 91.73 48.17V48.17C97.63 48.17 102.09 43.95 102.11 38.33C102.13 32.71 97.79 28.51 91.77 28.5ZM95.86 42.5C95.0451 43.3124 94.0063 43.8631 92.8766 44.0815C91.7468 44.3 90.5776 44.1763 89.5186 43.7263C88.4596 43.2762 87.559 42.5204 86.9322 41.5555C86.3053 40.5906 85.9808 39.4605 86 38.31C85.9606 36.7444 86.5431 35.227 87.62 34.09C88.1561 33.5552 88.7947 33.1342 89.4976 32.8524C90.2004 32.5706 90.9529 32.4337 91.71 32.45V32.45C92.4813 32.4278 93.2488 32.5664 93.9636 32.8569C94.6784 33.1475 95.3249 33.5836 95.862 34.1377C96.3991 34.6917 96.8149 35.3514 97.0832 36.0749C97.3514 36.7984 97.4661 37.5698 97.42 38.34C97.4644 39.8923 96.9052 41.4014 95.86 42.55V42.5Z" fill="#1C0000"/>
	<path d="M115.75 28.56C110.94 28.56 107.55 31.56 107.54 35.89V47.7H112.14V35.96C112.128 35.4988 112.211 35.04 112.383 34.6119C112.555 34.1837 112.813 33.7952 113.14 33.47C113.854 32.8157 114.791 32.4581 115.76 32.47C116.718 32.4507 117.645 32.8101 118.34 33.47C118.668 33.797 118.925 34.1873 119.097 34.6171C119.269 35.0469 119.352 35.5072 119.34 35.97V47.71H123.94V36.04C123.969 35.0205 123.778 34.0067 123.379 33.0678C122.98 32.129 122.384 31.2872 121.63 30.6C119.986 29.2224 117.894 28.4964 115.75 28.56V28.56Z" fill="#1C0000"/>
	<path d="M148.61 38.2099C148.594 35.7761 147.663 33.4375 146 31.6599C144.355 29.9881 142.151 28.9837 139.81 28.8399C139.62 28.8399 139.43 28.8399 139.2 28.8399H139C137.737 28.8108 136.48 29.0356 135.305 29.5011C134.13 29.9666 133.061 30.6633 132.16 31.5499C130.382 33.3985 129.408 35.8755 129.45 38.4399C129.365 41.0295 130.311 43.5471 132.08 45.4399C132.982 46.3277 134.053 47.0257 135.23 47.4929C136.406 47.96 137.664 48.1868 138.93 48.1599H148.6V38.2099H148.61ZM144.05 38.4299V43.7899H139.05C138.251 43.7936 137.463 43.6002 136.757 43.227C136.051 42.8537 135.447 42.312 135 41.6499C134.381 40.6842 134.061 39.557 134.08 38.4099C134.059 37.2612 134.383 36.1325 135.01 35.1699C135.462 34.5099 136.07 33.9718 136.78 33.6037C137.49 33.2355 138.28 33.0487 139.08 33.0599C139.766 33.0622 140.445 33.2057 141.074 33.4816C141.702 33.7575 142.267 34.1599 142.733 34.6637C143.2 35.1674 143.557 35.7618 143.784 36.4098C144.01 37.0577 144.101 37.7454 144.05 38.4299Z" fill="#1C0000"/>
	<path d="M9.72 28.4999H9.53H8.93C6.58458 28.6316 4.37159 29.6294 2.72 31.2999C1.02818 33.0788 0.0770885 35.435 0.06 37.8899V43.4399H0V56.8399H4.58V47.7499H9.7C15.29 47.7499 19.2 43.8099 19.22 38.1299C19.2711 36.8626 19.0614 35.5983 18.6038 34.4155C18.1461 33.2326 17.4504 32.1563 16.5597 31.2534C15.669 30.3505 14.6023 29.6402 13.4257 29.1666C12.2492 28.6929 10.9879 28.466 9.72 28.4999V28.4999ZM14.61 38.1299C14.6238 39.2759 14.2966 40.4002 13.67 41.3599C13.2187 42.0211 12.611 42.5607 11.901 42.9305C11.1909 43.3004 10.4005 43.4891 9.6 43.4799H4.6V38.0999C4.55333 37.4153 4.6481 36.7283 4.87839 36.0819C5.10869 35.4355 5.46958 34.8434 5.93861 34.3424C6.40764 33.8415 6.97476 33.4425 7.60466 33.1703C8.23457 32.898 8.91377 32.7583 9.6 32.7599C10.4001 32.7517 11.1897 32.9419 11.8982 33.3137C12.6067 33.6854 13.212 34.2269 13.66 34.8899C14.2949 35.85 14.6259 36.979 14.61 38.1299V38.1299Z" fill="#1C0000"/>
	<path d="M23.44 3.80001C23.457 4.2769 23.3772 4.75228 23.2053 5.19745C23.0334 5.64261 22.7731 6.0483 22.44 6.39001C22.0587 6.7607 21.6057 7.04951 21.1087 7.23868C20.6117 7.42784 20.0813 7.51337 19.55 7.49001H17.24V12H14.93V0.100008H19.52C20.051 0.0789858 20.5808 0.1656 21.0774 0.354639C21.5741 0.543678 22.0274 0.831235 22.41 1.20001C22.7488 1.54107 23.0148 1.94738 23.1918 2.39431C23.3689 2.84124 23.4533 3.31947 23.44 3.80001V3.80001ZM21.12 3.80001C21.1303 3.58057 21.0946 3.36141 21.0154 3.15651C20.9362 2.95162 20.8152 2.76549 20.66 2.61001C20.4911 2.45766 20.2936 2.34032 20.0791 2.26479C19.8645 2.18927 19.6371 2.15705 19.41 2.17001H17.24V5.41001H19.41C19.864 5.44005 20.312 5.29311 20.66 5.00001C20.8197 4.84572 20.9436 4.65833 21.0231 4.45101C21.1025 4.2437 21.1356 4.02149 21.12 3.80001Z" fill="#1C0000"/>
	<path d="M35.74 6.00008C35.7656 6.89605 35.7154 7.79257 35.59 8.68008C35.4678 9.43293 35.119 10.1306 34.59 10.6801C33.7315 11.5139 32.5818 11.9804 31.385 11.9804C30.1882 11.9804 29.0385 11.5139 28.18 10.6801C27.6546 10.1281 27.3064 9.43157 27.18 8.68008C27.0505 7.79277 26.9904 6.89673 27 6.00008C26.9771 5.10447 27.0239 4.20844 27.14 3.32008C27.2622 2.56723 27.611 1.86954 28.14 1.32008C28.9985 0.486219 30.1482 0.0197754 31.345 0.0197754C32.5418 0.0197754 33.6915 0.486219 34.55 1.32008C35.0898 1.88185 35.4395 2.59889 35.55 3.37008C35.686 4.23998 35.7495 5.11967 35.74 6.00008V6.00008ZM33.43 6.00008C33.43 5.09008 33.43 4.51008 33.43 4.27008C33.4229 3.6932 33.2339 3.13326 32.89 2.67008C32.6966 2.46676 32.464 2.30487 32.2061 2.19425C31.9482 2.08363 31.6706 2.02658 31.39 2.02658C31.1094 2.02658 30.8317 2.08363 30.5739 2.19425C30.316 2.30487 30.0833 2.46676 29.89 2.67008C29.5583 3.13891 29.3738 3.69593 29.36 4.27008C29.36 4.47008 29.36 5.04008 29.36 6.00008C29.36 6.96008 29.36 7.53008 29.36 7.73008C29.3801 8.3031 29.5641 8.85836 29.89 9.33008C30.0791 9.53796 30.3113 9.70204 30.5704 9.81086C30.8295 9.91968 31.1092 9.9706 31.39 9.96008C31.7009 9.97339 32.0103 9.91014 32.291 9.77588C32.5717 9.64162 32.8152 9.44046 33 9.19008C33.4044 8.17853 33.5521 7.08261 33.43 6.00008V6.00008Z" fill="#1C0000"/>
	<path d="M53.39 0.100098L50.21 12.0001H48.28L46.1 4.7601L43.92 12.0001H42L38.82 0.100098H41.24L43.07 7.5801L45.23 0.100098H47L49.16 7.5801L51 0.100098H53.39Z" fill="#1C0000"/>
	<path d="M64.68 12.0001H56.87V0.100098H64.68V2.1701H59.19V5.0001H63.86V7.0001H59.19V9.8901H64.68V12.0001Z" fill="#1C0000"/>
	<path d="M77.92 11.9999H75.24L72.92 7.22993H71.26V11.9999H68.94V0.0999341H73.59C74.1097 0.0761716 74.6288 0.158821 75.1154 0.342815C75.6021 0.526809 76.046 0.808269 76.42 1.16993C76.7537 1.505 77.0147 1.90526 77.1868 2.34573C77.3588 2.78619 77.4382 3.25741 77.42 3.72993C77.4346 4.44916 77.2094 5.1528 76.78 5.72993C76.3889 6.22982 75.8607 6.60508 75.26 6.80993L77.92 11.9999ZM75.12 3.75993C75.1273 3.55037 75.0891 3.34171 75.0079 3.14835C74.9268 2.95499 74.8047 2.78153 74.65 2.63993C74.319 2.34298 73.8842 2.18848 73.44 2.20993H71.26V5.27993H73.44C73.8834 5.29612 74.3162 5.1423 74.65 4.84993C74.8049 4.7064 74.9271 4.53117 75.0082 4.33617C75.0893 4.14118 75.1274 3.93099 75.12 3.71993V3.75993Z" fill="#1C0000"/>
	<path d="M89.64 12.0001H81.83V0.100098H89.64V2.1701H84.14V5.0001H88.82V7.0001H84.14V9.8901H89.64V12.0001Z" fill="#1C0000"/>
	<path d="M102.51 6.0001C102.533 6.86802 102.5 7.73651 102.41 8.6001C102.298 9.44687 101.911 10.2336 101.31 10.8401C100.895 11.2366 100.403 11.5441 99.8649 11.7436C99.3266 11.9431 98.7532 12.0304 98.18 12.0001H93.9V0.1001H98.18C98.751 0.0676336 99.3226 0.151006 99.8605 0.3452C100.398 0.539395 100.891 0.840399 101.31 1.2301C101.905 1.82516 102.291 2.5971 102.41 3.4301C102.501 4.28357 102.534 5.14216 102.51 6.0001ZM100.2 6.0001C100.214 5.33218 100.184 4.66408 100.11 4.0001C100.083 3.60143 99.9405 3.21924 99.7 2.9001C99.4907 2.65727 99.2288 2.46533 98.9343 2.33884C98.6397 2.21235 98.3202 2.15464 98 2.1701H96.22V9.8901H98C98.3268 9.91181 98.6541 9.85714 98.9561 9.73044C99.2581 9.60374 99.5265 9.40847 99.74 9.1601C99.971 8.81642 100.099 8.41406 100.11 8.0001C100.181 7.33592 100.211 6.66798 100.2 6.0001V6.0001Z" fill="#1C0000"/>
	<path d="M121.33 8.53991C121.355 9.00725 121.279 9.47451 121.106 9.90953C120.934 10.3446 120.669 10.737 120.33 11.0599C119.598 11.6813 118.659 12.0028 117.7 11.9599H112.7V0.0999068H117.47C118.446 0.041975 119.407 0.36456 120.15 0.999907C120.482 1.30909 120.743 1.68626 120.915 2.10565C121.088 2.52504 121.168 2.97675 121.15 3.42991C121.157 4.00578 120.982 4.56912 120.65 5.03991C120.392 5.39895 120.048 5.68771 119.65 5.87991C120.172 6.09336 120.614 6.46435 120.916 6.94116C121.217 7.41797 121.362 7.97685 121.33 8.53991V8.53991ZM118.85 3.53991C118.858 3.35349 118.826 3.16754 118.755 2.9949C118.684 2.82225 118.577 2.66702 118.44 2.53991C118.126 2.27319 117.721 2.14032 117.31 2.16991H115.05V4.89991H117.31C117.722 4.92674 118.128 4.79022 118.44 4.51991C118.575 4.39391 118.682 4.2403 118.753 4.06949C118.823 3.89868 118.857 3.71467 118.85 3.52991V3.53991ZM119.01 8.43991C119.012 8.06718 118.869 7.70837 118.61 7.43991C118.456 7.29807 118.274 7.18939 118.077 7.12058C117.879 7.05178 117.669 7.02432 117.46 7.03991H115.05V9.88991H117.46C117.67 9.90471 117.882 9.87495 118.08 9.80258C118.278 9.7302 118.459 9.61685 118.61 9.46991C118.742 9.33199 118.845 9.1687 118.912 8.98993C118.979 8.81116 119.009 8.62063 119 8.42991L119.01 8.43991Z" fill="#1C0000"/>
	<path d="M133.78 0.100088L130.22 7.10009V12.0001H127.92V7.09009L124.35 0.0900879H126.87L129.08 4.87009L131.27 0.100088H133.78Z" fill="#1C0000"/>
	</g>
	<defs>
	<clipPath id="clip0">
	<rect width="148.61" height="56.84" fill="white"/>
	</clipPath>
	</defs>
</svg>
